<?xml version="1.0" standalone="no"?><!DOCTYPE svg PUBLIC "-//W3C//DTD SVG 1.1//EN" "http://www.w3.org/Graphics/SVG/1.1/DTD/svg11.dtd"><svg t="1555402427373" class="icon" style="" viewBox="0 0 1024 1024" version="1.1" xmlns="http://www.w3.org/2000/svg" p-id="3627" xmlns:xlink="http://www.w3.org/1999/xlink" width="128" height="128"><defs><style type="text/css"></style></defs><path d="M676.18133333 717.93777778l-7.39555555 33.33688889c86.58488889 19.22844445 144.72533333 54.61333333 144.72533333 88.064 0 49.26577778-123.79022222 104.10666667-301.39733333 104.10666666s-301.51111111-54.72711111-301.51111111-103.99288888c0-33.45066667 58.14044445-68.83555555 144.72533333-88.064l-7.50933333-33.45066667c-107.29244445 23.89333333-171.34933333 69.40444445-171.34933334 121.51466667 0 78.848 144.27022222 138.35377778 335.64444445 138.24S847.75822222 918.18666667 847.64444445 839.33866667c0-52.224-64.05688889-97.62133333-171.46311112-121.40088889z" fill="#888888" p-id="3628"></path><path d="M450.90133333 762.99377778c26.85155555 48.128 96.14222222 48.128 122.88-0.11377778L755.48444445 435.76888889a264.76088889 264.76088889 0 0 0 29.696-121.74222222c0-152.80355555-129.82044445-276.25244445-286.37866667-268.97066667-138.12622222 6.37155555-251.44888889 116.96355555-259.64088889 253.04177778A264.98844445 264.98844445 0 0 0 268.51555555 435.88266667z" fill="#888888" p-id="3629"></path><path d="M512 420.18133333c-58.48177778 0-106.15466667-46.87644445-106.15466667-104.448s47.55911111-104.67555555 106.04088889-104.67555555 106.15466667 46.87644445 106.15466667 104.56177777-47.55911111 104.56177778-106.04088889 104.56177778z" fill="#FFFFFF" p-id="3630"></path></svg>